<mxfile host="Electron" agent="Mozilla/5.0 (Windows NT 10.0; Win64; x64) AppleWebKit/537.36 (KHTML, like Gecko) draw.io/24.7.17 Chrome/128.0.6613.36 Electron/32.0.1 Safari/537.36" version="24.7.17">
  <diagram name="Page-1" id="5f0bae14-7c28-e335-631c-24af17079c00">
    <mxGraphModel dx="1182" dy="683" grid="1" gridSize="10" guides="1" tooltips="1" connect="1" arrows="1" fold="1" page="1" pageScale="1" pageWidth="1100" pageHeight="850" background="none" math="0" shadow="0">
      <root>
        <mxCell id="0" />
        <mxCell id="1" parent="0" />
        <mxCell id="N0Xd9c7wZlWknfisk5Qr-2" style="edgeStyle=orthogonalEdgeStyle;rounded=0;orthogonalLoop=1;jettySize=auto;html=1;startArrow=classic;startFill=1;endArrow=none;endFill=0;" parent="1" source="N0Xd9c7wZlWknfisk5Qr-1" target="N0Xd9c7wZlWknfisk5Qr-3" edge="1">
          <mxGeometry relative="1" as="geometry">
            <mxPoint x="240" y="480" as="targetPoint" />
            <Array as="points">
              <mxPoint x="240" y="410" />
              <mxPoint x="240" y="410" />
            </Array>
          </mxGeometry>
        </mxCell>
        <mxCell id="N0Xd9c7wZlWknfisk5Qr-25" style="edgeStyle=orthogonalEdgeStyle;rounded=0;orthogonalLoop=1;jettySize=auto;html=1;" parent="1" source="N0Xd9c7wZlWknfisk5Qr-1" target="N0Xd9c7wZlWknfisk5Qr-3" edge="1">
          <mxGeometry relative="1" as="geometry" />
        </mxCell>
        <mxCell id="N0Xd9c7wZlWknfisk5Qr-1" value="Stock Exchange App User Interface" style="rounded=1;whiteSpace=wrap;html=1;" parent="1" vertex="1">
          <mxGeometry x="190" y="260" width="140" height="70" as="geometry" />
        </mxCell>
        <mxCell id="N0Xd9c7wZlWknfisk5Qr-4" style="edgeStyle=orthogonalEdgeStyle;rounded=0;orthogonalLoop=1;jettySize=auto;html=1;startArrow=classic;startFill=1;endArrow=none;endFill=0;" parent="1" source="N0Xd9c7wZlWknfisk5Qr-3" target="N0Xd9c7wZlWknfisk5Qr-5" edge="1">
          <mxGeometry relative="1" as="geometry">
            <mxPoint x="180" y="580" as="targetPoint" />
            <Array as="points">
              <mxPoint x="110" y="490" />
            </Array>
          </mxGeometry>
        </mxCell>
        <mxCell id="N0Xd9c7wZlWknfisk5Qr-10" style="edgeStyle=orthogonalEdgeStyle;rounded=0;orthogonalLoop=1;jettySize=auto;html=1;startArrow=classic;startFill=1;endArrow=classic;endFill=1;" parent="1" source="N0Xd9c7wZlWknfisk5Qr-3" target="N0Xd9c7wZlWknfisk5Qr-11" edge="1">
          <mxGeometry relative="1" as="geometry">
            <mxPoint x="260" y="560" as="targetPoint" />
          </mxGeometry>
        </mxCell>
        <mxCell id="N0Xd9c7wZlWknfisk5Qr-31" style="edgeStyle=orthogonalEdgeStyle;rounded=0;orthogonalLoop=1;jettySize=auto;html=1;startArrow=classic;startFill=1;" parent="1" source="gKmf_tGoP0ItRs4sD-Lh-1" target="N0Xd9c7wZlWknfisk5Qr-27" edge="1">
          <mxGeometry relative="1" as="geometry">
            <Array as="points">
              <mxPoint x="610" y="650" />
              <mxPoint x="610" y="650" />
            </Array>
          </mxGeometry>
        </mxCell>
        <mxCell id="gKmf_tGoP0ItRs4sD-Lh-2" style="edgeStyle=orthogonalEdgeStyle;rounded=0;orthogonalLoop=1;jettySize=auto;html=1;startArrow=classic;startFill=1;" parent="1" source="N0Xd9c7wZlWknfisk5Qr-3" target="gKmf_tGoP0ItRs4sD-Lh-1" edge="1">
          <mxGeometry relative="1" as="geometry">
            <Array as="points">
              <mxPoint x="435" y="480" />
              <mxPoint x="435" y="520" />
            </Array>
          </mxGeometry>
        </mxCell>
        <mxCell id="N0Xd9c7wZlWknfisk5Qr-3" value="Bussiness Logic" style="rounded=1;whiteSpace=wrap;html=1;" parent="1" vertex="1">
          <mxGeometry x="200" y="450" width="120" height="60" as="geometry" />
        </mxCell>
        <mxCell id="N0Xd9c7wZlWknfisk5Qr-5" value="Real-time Data fetch by web scraping" style="rounded=1;whiteSpace=wrap;html=1;" parent="1" vertex="1">
          <mxGeometry x="50" y="520" width="120" height="60" as="geometry" />
        </mxCell>
        <mxCell id="N0Xd9c7wZlWknfisk5Qr-8" style="rounded=0;orthogonalLoop=1;jettySize=auto;html=1;startArrow=classic;startFill=1;" parent="1" source="N0Xd9c7wZlWknfisk5Qr-7" target="N0Xd9c7wZlWknfisk5Qr-5" edge="1">
          <mxGeometry relative="1" as="geometry" />
        </mxCell>
        <mxCell id="N0Xd9c7wZlWknfisk5Qr-7" value="MSE Website" style="ellipse;whiteSpace=wrap;html=1;" parent="1" vertex="1">
          <mxGeometry x="60" y="630" width="70" height="60" as="geometry" />
        </mxCell>
        <mxCell id="N0Xd9c7wZlWknfisk5Qr-9" value="Retrieve Real-time Data" style="text;html=1;align=center;verticalAlign=middle;resizable=0;points=[];autosize=1;strokeColor=none;fillColor=none;" parent="1" vertex="1">
          <mxGeometry x="50" y="460" width="150" height="30" as="geometry" />
        </mxCell>
        <mxCell id="N0Xd9c7wZlWknfisk5Qr-11" value="Data Access" style="rounded=1;whiteSpace=wrap;html=1;" parent="1" vertex="1">
          <mxGeometry x="205" y="580" width="110" height="50" as="geometry" />
        </mxCell>
        <mxCell id="N0Xd9c7wZlWknfisk5Qr-13" value="" style="strokeWidth=3;outlineConnect=0;dashed=0;align=center;fontSize=8;shape=mxgraph.eip.messExp;html=1;verticalLabelPosition=bottom;verticalAlign=top" parent="1" vertex="1">
          <mxGeometry x="10" y="536" width="28" height="28" as="geometry" />
        </mxCell>
        <mxCell id="N0Xd9c7wZlWknfisk5Qr-14" value="Users" style="sketch=0;outlineConnect=0;dashed=0;verticalLabelPosition=bottom;verticalAlign=top;align=center;html=1;fontSize=12;fontStyle=0;aspect=fixed;shape=mxgraph.aws4.resourceIcon;resIcon=mxgraph.aws4.user;fontColor=default;" parent="1" vertex="1">
          <mxGeometry x="140" y="275" width="40" height="40" as="geometry" />
        </mxCell>
        <mxCell id="N0Xd9c7wZlWknfisk5Qr-29" style="edgeStyle=orthogonalEdgeStyle;rounded=0;orthogonalLoop=1;jettySize=auto;html=1;" parent="1" source="N0Xd9c7wZlWknfisk5Qr-16" target="N0Xd9c7wZlWknfisk5Qr-3" edge="1">
          <mxGeometry relative="1" as="geometry">
            <Array as="points">
              <mxPoint x="540" y="400" />
              <mxPoint x="290" y="400" />
            </Array>
          </mxGeometry>
        </mxCell>
        <mxCell id="N0Xd9c7wZlWknfisk5Qr-16" value="StockExchangeApp Admin panel" style="rounded=1;whiteSpace=wrap;html=1;" parent="1" vertex="1">
          <mxGeometry x="470" y="260" width="140" height="70" as="geometry" />
        </mxCell>
        <mxCell id="N0Xd9c7wZlWknfisk5Qr-17" value="Admin" style="sketch=0;outlineConnect=0;dashed=0;verticalLabelPosition=bottom;verticalAlign=top;align=center;html=1;fontSize=12;fontStyle=0;aspect=fixed;shape=mxgraph.aws4.resourceIcon;resIcon=mxgraph.aws4.user;fontColor=default;" parent="1" vertex="1">
          <mxGeometry x="420" y="275" width="40" height="40" as="geometry" />
        </mxCell>
        <mxCell id="N0Xd9c7wZlWknfisk5Qr-18" value="Display Data" style="text;html=1;align=center;verticalAlign=middle;resizable=0;points=[];autosize=1;strokeColor=none;fillColor=none;" parent="1" vertex="1">
          <mxGeometry x="155" y="355" width="90" height="30" as="geometry" />
        </mxCell>
        <mxCell id="N0Xd9c7wZlWknfisk5Qr-22" style="edgeStyle=orthogonalEdgeStyle;rounded=0;orthogonalLoop=1;jettySize=auto;html=1;startArrow=classic;startFill=1;" parent="1" source="N0Xd9c7wZlWknfisk5Qr-20" target="N0Xd9c7wZlWknfisk5Qr-11" edge="1">
          <mxGeometry relative="1" as="geometry" />
        </mxCell>
        <mxCell id="N0Xd9c7wZlWknfisk5Qr-20" value="Historical Data Database" style="rounded=1;whiteSpace=wrap;html=1;" parent="1" vertex="1">
          <mxGeometry x="250" y="700" width="110" height="50" as="geometry" />
        </mxCell>
        <mxCell id="N0Xd9c7wZlWknfisk5Qr-21" value="" style="sketch=0;outlineConnect=0;dashed=0;verticalLabelPosition=bottom;verticalAlign=top;align=center;html=1;fontSize=12;fontStyle=0;aspect=fixed;shape=mxgraph.aws4.resourceIcon;resIcon=mxgraph.aws4.generic_database;" parent="1" vertex="1">
          <mxGeometry x="205" y="705" width="40" height="40" as="geometry" />
        </mxCell>
        <mxCell id="N0Xd9c7wZlWknfisk5Qr-23" value="DB connection" style="text;html=1;align=center;verticalAlign=middle;resizable=0;points=[];autosize=1;strokeColor=none;fillColor=none;" parent="1" vertex="1">
          <mxGeometry x="260" y="640" width="100" height="30" as="geometry" />
        </mxCell>
        <mxCell id="N0Xd9c7wZlWknfisk5Qr-24" value="Retrieve and Store Historical Data" style="text;html=1;align=center;verticalAlign=middle;resizable=0;points=[];autosize=1;strokeColor=none;fillColor=none;" parent="1" vertex="1">
          <mxGeometry x="260" y="550" width="200" height="30" as="geometry" />
        </mxCell>
        <mxCell id="N0Xd9c7wZlWknfisk5Qr-26" value="Proccess User Request" style="text;html=1;align=center;verticalAlign=middle;resizable=0;points=[];autosize=1;strokeColor=none;fillColor=none;" parent="1" vertex="1">
          <mxGeometry x="250" y="355" width="150" height="30" as="geometry" />
        </mxCell>
        <mxCell id="N0Xd9c7wZlWknfisk5Qr-27" value="Fundamental Analysis Engine" style="rounded=1;whiteSpace=wrap;html=1;" parent="1" vertex="1">
          <mxGeometry x="580" y="705" width="120" height="60" as="geometry" />
        </mxCell>
        <mxCell id="N0Xd9c7wZlWknfisk5Qr-33" style="edgeStyle=orthogonalEdgeStyle;rounded=0;orthogonalLoop=1;jettySize=auto;html=1;startArrow=classic;startFill=1;" parent="1" source="N0Xd9c7wZlWknfisk5Qr-28" target="gKmf_tGoP0ItRs4sD-Lh-1" edge="1">
          <mxGeometry relative="1" as="geometry">
            <Array as="points">
              <mxPoint x="580" y="420" />
            </Array>
          </mxGeometry>
        </mxCell>
        <mxCell id="N0Xd9c7wZlWknfisk5Qr-28" value="Prediction (LSTM) Engine" style="rounded=1;whiteSpace=wrap;html=1;" parent="1" vertex="1">
          <mxGeometry x="715" y="335" width="120" height="60" as="geometry" />
        </mxCell>
        <mxCell id="N0Xd9c7wZlWknfisk5Qr-30" value="Administrative Access" style="text;html=1;align=center;verticalAlign=middle;resizable=0;points=[];autosize=1;strokeColor=none;fillColor=none;" parent="1" vertex="1">
          <mxGeometry x="425" y="395" width="140" height="30" as="geometry" />
        </mxCell>
        <mxCell id="N0Xd9c7wZlWknfisk5Qr-32" value="Analysis on Requested Data and Response" style="text;html=1;align=center;verticalAlign=middle;resizable=0;points=[];autosize=1;strokeColor=none;fillColor=none;" parent="1" vertex="1">
          <mxGeometry x="610" y="640" width="260" height="30" as="geometry" />
        </mxCell>
        <mxCell id="N0Xd9c7wZlWknfisk5Qr-34" value="Predictions on Requested Data and Response" style="text;html=1;align=center;verticalAlign=middle;resizable=0;points=[];autosize=1;strokeColor=none;fillColor=none;" parent="1" vertex="1">
          <mxGeometry x="590" y="425" width="270" height="30" as="geometry" />
        </mxCell>
        <mxCell id="N0Xd9c7wZlWknfisk5Qr-35" style="edgeStyle=orthogonalEdgeStyle;rounded=0;orthogonalLoop=1;jettySize=auto;html=1;startArrow=classic;startFill=1;endArrow=none;endFill=0;opacity=40;" parent="1" source="N0Xd9c7wZlWknfisk5Qr-37" target="N0Xd9c7wZlWknfisk5Qr-41" edge="1">
          <mxGeometry relative="1" as="geometry">
            <mxPoint x="1210" y="470" as="targetPoint" />
            <Array as="points">
              <mxPoint x="1210" y="400" />
              <mxPoint x="1210" y="400" />
            </Array>
          </mxGeometry>
        </mxCell>
        <mxCell id="N0Xd9c7wZlWknfisk5Qr-36" style="edgeStyle=orthogonalEdgeStyle;rounded=0;orthogonalLoop=1;jettySize=auto;html=1;opacity=40;" parent="1" source="N0Xd9c7wZlWknfisk5Qr-37" target="N0Xd9c7wZlWknfisk5Qr-41" edge="1">
          <mxGeometry relative="1" as="geometry" />
        </mxCell>
        <mxCell id="N0Xd9c7wZlWknfisk5Qr-37" value="Stock Exchange App User Interface" style="rounded=1;whiteSpace=wrap;html=1;opacity=40;" parent="1" vertex="1">
          <mxGeometry x="1160" y="250" width="140" height="70" as="geometry" />
        </mxCell>
        <mxCell id="N0Xd9c7wZlWknfisk5Qr-38" style="edgeStyle=orthogonalEdgeStyle;rounded=0;orthogonalLoop=1;jettySize=auto;html=1;startArrow=classic;startFill=1;endArrow=none;endFill=0;opacity=40;" parent="1" source="N0Xd9c7wZlWknfisk5Qr-41" target="N0Xd9c7wZlWknfisk5Qr-42" edge="1">
          <mxGeometry relative="1" as="geometry">
            <mxPoint x="1150" y="570" as="targetPoint" />
            <Array as="points">
              <mxPoint x="1080" y="480" />
            </Array>
          </mxGeometry>
        </mxCell>
        <mxCell id="N0Xd9c7wZlWknfisk5Qr-39" style="edgeStyle=orthogonalEdgeStyle;rounded=0;orthogonalLoop=1;jettySize=auto;html=1;startArrow=classic;startFill=1;endArrow=classic;endFill=1;opacity=40;" parent="1" source="N0Xd9c7wZlWknfisk5Qr-41" target="N0Xd9c7wZlWknfisk5Qr-46" edge="1">
          <mxGeometry relative="1" as="geometry">
            <mxPoint x="1230" y="550" as="targetPoint" />
          </mxGeometry>
        </mxCell>
        <mxCell id="N0Xd9c7wZlWknfisk5Qr-41" value="Bussiness Logic" style="rounded=1;whiteSpace=wrap;html=1;opacity=40;" parent="1" vertex="1">
          <mxGeometry x="1170" y="440" width="120" height="60" as="geometry" />
        </mxCell>
        <mxCell id="N0Xd9c7wZlWknfisk5Qr-42" value="Real-time Data fetch by web scraping" style="rounded=1;whiteSpace=wrap;html=1;opacity=40;" parent="1" vertex="1">
          <mxGeometry x="1020" y="510" width="120" height="60" as="geometry" />
        </mxCell>
        <mxCell id="N0Xd9c7wZlWknfisk5Qr-43" style="rounded=0;orthogonalLoop=1;jettySize=auto;html=1;startArrow=classic;startFill=1;opacity=40;" parent="1" source="N0Xd9c7wZlWknfisk5Qr-44" target="N0Xd9c7wZlWknfisk5Qr-42" edge="1">
          <mxGeometry relative="1" as="geometry" />
        </mxCell>
        <mxCell id="N0Xd9c7wZlWknfisk5Qr-44" value="MSE Website" style="ellipse;whiteSpace=wrap;html=1;opacity=40;" parent="1" vertex="1">
          <mxGeometry x="1030" y="620" width="70" height="60" as="geometry" />
        </mxCell>
        <mxCell id="N0Xd9c7wZlWknfisk5Qr-45" value="Retrieve Real-time Data" style="text;html=1;align=center;verticalAlign=middle;resizable=0;points=[];autosize=1;strokeColor=none;fillColor=none;opacity=40;" parent="1" vertex="1">
          <mxGeometry x="1020" y="450" width="150" height="30" as="geometry" />
        </mxCell>
        <mxCell id="N0Xd9c7wZlWknfisk5Qr-46" value="Data Access" style="rounded=1;whiteSpace=wrap;html=1;opacity=40;" parent="1" vertex="1">
          <mxGeometry x="1175" y="570" width="110" height="50" as="geometry" />
        </mxCell>
        <mxCell id="N0Xd9c7wZlWknfisk5Qr-47" value="" style="strokeWidth=3;outlineConnect=0;dashed=0;align=center;fontSize=8;shape=mxgraph.eip.messExp;html=1;verticalLabelPosition=bottom;verticalAlign=top;opacity=40;" parent="1" vertex="1">
          <mxGeometry x="980" y="526" width="28" height="28" as="geometry" />
        </mxCell>
        <mxCell id="N0Xd9c7wZlWknfisk5Qr-48" value="Users" style="sketch=0;outlineConnect=0;dashed=0;verticalLabelPosition=bottom;verticalAlign=top;align=center;html=1;fontSize=12;fontStyle=0;aspect=fixed;shape=mxgraph.aws4.resourceIcon;resIcon=mxgraph.aws4.user;fontColor=default;opacity=40;" parent="1" vertex="1">
          <mxGeometry x="1110" y="265" width="40" height="40" as="geometry" />
        </mxCell>
        <mxCell id="N0Xd9c7wZlWknfisk5Qr-49" style="edgeStyle=orthogonalEdgeStyle;rounded=0;orthogonalLoop=1;jettySize=auto;html=1;opacity=40;" parent="1" source="N0Xd9c7wZlWknfisk5Qr-50" target="N0Xd9c7wZlWknfisk5Qr-41" edge="1">
          <mxGeometry relative="1" as="geometry">
            <Array as="points">
              <mxPoint x="1510" y="390" />
              <mxPoint x="1260" y="390" />
            </Array>
          </mxGeometry>
        </mxCell>
        <mxCell id="N0Xd9c7wZlWknfisk5Qr-50" value="StockExchangeApp Admin panel" style="rounded=1;whiteSpace=wrap;html=1;opacity=40;" parent="1" vertex="1">
          <mxGeometry x="1440" y="250" width="140" height="70" as="geometry" />
        </mxCell>
        <mxCell id="N0Xd9c7wZlWknfisk5Qr-51" value="Admin" style="sketch=0;outlineConnect=0;dashed=0;verticalLabelPosition=bottom;verticalAlign=top;align=center;html=1;fontSize=12;fontStyle=0;aspect=fixed;shape=mxgraph.aws4.resourceIcon;resIcon=mxgraph.aws4.user;fontColor=default;opacity=40;" parent="1" vertex="1">
          <mxGeometry x="1390" y="265" width="40" height="40" as="geometry" />
        </mxCell>
        <mxCell id="N0Xd9c7wZlWknfisk5Qr-52" value="Display Data" style="text;html=1;align=center;verticalAlign=middle;resizable=0;points=[];autosize=1;strokeColor=none;fillColor=none;opacity=40;" parent="1" vertex="1">
          <mxGeometry x="1125" y="345" width="90" height="30" as="geometry" />
        </mxCell>
        <mxCell id="N0Xd9c7wZlWknfisk5Qr-53" style="edgeStyle=orthogonalEdgeStyle;rounded=0;orthogonalLoop=1;jettySize=auto;html=1;startArrow=classic;startFill=1;opacity=40;" parent="1" source="N0Xd9c7wZlWknfisk5Qr-54" target="N0Xd9c7wZlWknfisk5Qr-46" edge="1">
          <mxGeometry relative="1" as="geometry" />
        </mxCell>
        <mxCell id="N0Xd9c7wZlWknfisk5Qr-54" value="Historical Data Database" style="rounded=1;whiteSpace=wrap;html=1;opacity=40;" parent="1" vertex="1">
          <mxGeometry x="1220" y="690" width="110" height="50" as="geometry" />
        </mxCell>
        <mxCell id="N0Xd9c7wZlWknfisk5Qr-55" value="" style="sketch=0;outlineConnect=0;dashed=0;verticalLabelPosition=bottom;verticalAlign=top;align=center;html=1;fontSize=12;fontStyle=0;aspect=fixed;shape=mxgraph.aws4.resourceIcon;resIcon=mxgraph.aws4.generic_database;opacity=40;" parent="1" vertex="1">
          <mxGeometry x="1175" y="695" width="40" height="40" as="geometry" />
        </mxCell>
        <mxCell id="N0Xd9c7wZlWknfisk5Qr-56" value="DB connection" style="text;html=1;align=center;verticalAlign=middle;resizable=0;points=[];autosize=1;strokeColor=none;fillColor=none;opacity=40;" parent="1" vertex="1">
          <mxGeometry x="1230" y="630" width="100" height="30" as="geometry" />
        </mxCell>
        <mxCell id="N0Xd9c7wZlWknfisk5Qr-57" value="Retrieve and Store Historical Data" style="text;html=1;align=center;verticalAlign=middle;resizable=0;points=[];autosize=1;strokeColor=none;fillColor=none;opacity=40;" parent="1" vertex="1">
          <mxGeometry x="1230" y="540" width="200" height="30" as="geometry" />
        </mxCell>
        <mxCell id="N0Xd9c7wZlWknfisk5Qr-58" value="Proccess User Request" style="text;html=1;align=center;verticalAlign=middle;resizable=0;points=[];autosize=1;strokeColor=none;fillColor=none;opacity=40;" parent="1" vertex="1">
          <mxGeometry x="1220" y="345" width="150" height="30" as="geometry" />
        </mxCell>
        <mxCell id="N0Xd9c7wZlWknfisk5Qr-62" value="Administrative Access" style="text;html=1;align=center;verticalAlign=middle;resizable=0;points=[];autosize=1;strokeColor=none;fillColor=none;opacity=40;" parent="1" vertex="1">
          <mxGeometry x="1395" y="385" width="140" height="30" as="geometry" />
        </mxCell>
        <mxCell id="N0Xd9c7wZlWknfisk5Qr-65" value="USE-CASE 1 :Do a technical analysis on the whole data on a sellected Stock" style="text;html=1;align=center;verticalAlign=middle;resizable=0;points=[];autosize=1;strokeColor=none;fillColor=none;opacity=40;" parent="1" vertex="1">
          <mxGeometry x="1230" y="160" width="430" height="30" as="geometry" />
        </mxCell>
        <mxCell id="N0Xd9c7wZlWknfisk5Qr-68" value="" style="shape=waypoint;sketch=0;size=6;pointerEvents=1;points=[];fillColor=#1ba1e2;resizable=0;rotatable=0;perimeter=centerPerimeter;snapToPoint=1;strokeWidth=9;fontColor=#ffffff;strokeColor=#006EAF;" parent="1" vertex="1">
          <mxGeometry x="1050" y="260" width="20" height="20" as="geometry" />
        </mxCell>
        <mxCell id="N0Xd9c7wZlWknfisk5Qr-70" value="" style="rounded=0;whiteSpace=wrap;html=1;fillColor=#006eaf;fontColor=#ffffff;strokeColor=#006EAF;" parent="1" vertex="1">
          <mxGeometry x="1055" y="210" width="10" height="40" as="geometry" />
        </mxCell>
        <mxCell id="N0Xd9c7wZlWknfisk5Qr-76" value="Stock Data Request" style="text;html=1;align=center;verticalAlign=middle;resizable=0;points=[];autosize=1;opacity=40;fontColor=#006eaf;" parent="1" vertex="1">
          <mxGeometry x="980" y="285" width="130" height="30" as="geometry" />
        </mxCell>
        <mxCell id="N0Xd9c7wZlWknfisk5Qr-77" value="Display Whole stock Data" style="text;html=1;align=center;verticalAlign=middle;resizable=0;points=[];autosize=1;strokeColor=none;fillColor=none;opacity=40;fontColor=#006eaf;" parent="1" vertex="1">
          <mxGeometry x="1100" y="200" width="160" height="30" as="geometry" />
        </mxCell>
        <mxCell id="N0Xd9c7wZlWknfisk5Qr-78" value="Get Current stock Data" style="text;html=1;align=center;verticalAlign=middle;resizable=0;points=[];autosize=1;strokeColor=none;fillColor=none;opacity=40;fontColor=#006eaf;" parent="1" vertex="1">
          <mxGeometry x="1020" y="420" width="150" height="30" as="geometry" />
        </mxCell>
        <mxCell id="N0Xd9c7wZlWknfisk5Qr-79" value="Get Historical stock Data" style="text;html=1;align=center;verticalAlign=middle;resizable=0;points=[];autosize=1;strokeColor=none;fillColor=none;opacity=40;fontColor=#006eaf;" parent="1" vertex="1">
          <mxGeometry x="1080" y="660" width="160" height="30" as="geometry" />
        </mxCell>
        <mxCell id="N0Xd9c7wZlWknfisk5Qr-80" style="edgeStyle=orthogonalEdgeStyle;rounded=0;orthogonalLoop=1;jettySize=auto;html=1;startArrow=classic;startFill=1;endArrow=none;endFill=0;opacity=40;" parent="1" source="N0Xd9c7wZlWknfisk5Qr-82" target="N0Xd9c7wZlWknfisk5Qr-86" edge="1">
          <mxGeometry relative="1" as="geometry">
            <mxPoint x="320" y="1190" as="targetPoint" />
            <Array as="points">
              <mxPoint x="320" y="1120" />
              <mxPoint x="320" y="1120" />
            </Array>
          </mxGeometry>
        </mxCell>
        <mxCell id="N0Xd9c7wZlWknfisk5Qr-81" style="edgeStyle=orthogonalEdgeStyle;rounded=0;orthogonalLoop=1;jettySize=auto;html=1;opacity=40;" parent="1" source="N0Xd9c7wZlWknfisk5Qr-82" target="N0Xd9c7wZlWknfisk5Qr-86" edge="1">
          <mxGeometry relative="1" as="geometry" />
        </mxCell>
        <mxCell id="N0Xd9c7wZlWknfisk5Qr-82" value="Stock Exchange App User Interface" style="rounded=1;whiteSpace=wrap;html=1;opacity=40;" parent="1" vertex="1">
          <mxGeometry x="270" y="970" width="140" height="70" as="geometry" />
        </mxCell>
        <mxCell id="N0Xd9c7wZlWknfisk5Qr-83" style="edgeStyle=orthogonalEdgeStyle;rounded=0;orthogonalLoop=1;jettySize=auto;html=1;startArrow=classic;startFill=1;endArrow=none;endFill=0;opacity=40;" parent="1" source="N0Xd9c7wZlWknfisk5Qr-86" target="N0Xd9c7wZlWknfisk5Qr-87" edge="1">
          <mxGeometry relative="1" as="geometry">
            <mxPoint x="260" y="1290" as="targetPoint" />
            <Array as="points">
              <mxPoint x="190" y="1200" />
            </Array>
          </mxGeometry>
        </mxCell>
        <mxCell id="N0Xd9c7wZlWknfisk5Qr-84" style="edgeStyle=orthogonalEdgeStyle;rounded=0;orthogonalLoop=1;jettySize=auto;html=1;startArrow=classic;startFill=1;endArrow=classic;endFill=1;opacity=40;" parent="1" source="N0Xd9c7wZlWknfisk5Qr-86" target="N0Xd9c7wZlWknfisk5Qr-91" edge="1">
          <mxGeometry relative="1" as="geometry">
            <mxPoint x="340" y="1270" as="targetPoint" />
          </mxGeometry>
        </mxCell>
        <mxCell id="N0Xd9c7wZlWknfisk5Qr-86" value="Bussiness Logic" style="rounded=1;whiteSpace=wrap;html=1;opacity=40;" parent="1" vertex="1">
          <mxGeometry x="280" y="1160" width="120" height="60" as="geometry" />
        </mxCell>
        <mxCell id="N0Xd9c7wZlWknfisk5Qr-87" value="Real-time Data fetch by web scraping" style="rounded=1;whiteSpace=wrap;html=1;opacity=40;" parent="1" vertex="1">
          <mxGeometry x="130" y="1230" width="120" height="60" as="geometry" />
        </mxCell>
        <mxCell id="N0Xd9c7wZlWknfisk5Qr-88" style="rounded=0;orthogonalLoop=1;jettySize=auto;html=1;startArrow=classic;startFill=1;opacity=40;" parent="1" source="N0Xd9c7wZlWknfisk5Qr-89" target="N0Xd9c7wZlWknfisk5Qr-87" edge="1">
          <mxGeometry relative="1" as="geometry" />
        </mxCell>
        <mxCell id="N0Xd9c7wZlWknfisk5Qr-89" value="MSE Website" style="ellipse;whiteSpace=wrap;html=1;opacity=40;" parent="1" vertex="1">
          <mxGeometry x="140" y="1340" width="70" height="60" as="geometry" />
        </mxCell>
        <mxCell id="N0Xd9c7wZlWknfisk5Qr-90" value="Retrieve Real-time Data" style="text;html=1;align=center;verticalAlign=middle;resizable=0;points=[];autosize=1;strokeColor=none;fillColor=none;opacity=40;" parent="1" vertex="1">
          <mxGeometry x="130" y="1170" width="150" height="30" as="geometry" />
        </mxCell>
        <mxCell id="N0Xd9c7wZlWknfisk5Qr-91" value="Data Access" style="rounded=1;whiteSpace=wrap;html=1;opacity=40;" parent="1" vertex="1">
          <mxGeometry x="285" y="1290" width="110" height="50" as="geometry" />
        </mxCell>
        <mxCell id="N0Xd9c7wZlWknfisk5Qr-92" value="" style="strokeWidth=3;outlineConnect=0;dashed=0;align=center;fontSize=8;shape=mxgraph.eip.messExp;html=1;verticalLabelPosition=bottom;verticalAlign=top;opacity=40;" parent="1" vertex="1">
          <mxGeometry x="90" y="1246" width="28" height="28" as="geometry" />
        </mxCell>
        <mxCell id="N0Xd9c7wZlWknfisk5Qr-93" value="Users" style="sketch=0;outlineConnect=0;dashed=0;verticalLabelPosition=bottom;verticalAlign=top;align=center;html=1;fontSize=12;fontStyle=0;aspect=fixed;shape=mxgraph.aws4.resourceIcon;resIcon=mxgraph.aws4.user;fontColor=default;opacity=40;" parent="1" vertex="1">
          <mxGeometry x="220" y="985" width="40" height="40" as="geometry" />
        </mxCell>
        <mxCell id="N0Xd9c7wZlWknfisk5Qr-94" style="edgeStyle=orthogonalEdgeStyle;rounded=0;orthogonalLoop=1;jettySize=auto;html=1;opacity=40;" parent="1" source="N0Xd9c7wZlWknfisk5Qr-95" target="N0Xd9c7wZlWknfisk5Qr-86" edge="1">
          <mxGeometry relative="1" as="geometry">
            <Array as="points">
              <mxPoint x="620" y="1110" />
              <mxPoint x="370" y="1110" />
            </Array>
          </mxGeometry>
        </mxCell>
        <mxCell id="N0Xd9c7wZlWknfisk5Qr-95" value="StockExchangeApp Admin panel" style="rounded=1;whiteSpace=wrap;html=1;opacity=40;" parent="1" vertex="1">
          <mxGeometry x="550" y="970" width="140" height="70" as="geometry" />
        </mxCell>
        <mxCell id="N0Xd9c7wZlWknfisk5Qr-96" value="Admin" style="sketch=0;outlineConnect=0;dashed=0;verticalLabelPosition=bottom;verticalAlign=top;align=center;html=1;fontSize=12;fontStyle=0;aspect=fixed;shape=mxgraph.aws4.resourceIcon;resIcon=mxgraph.aws4.user;fontColor=default;opacity=40;" parent="1" vertex="1">
          <mxGeometry x="500" y="985" width="40" height="40" as="geometry" />
        </mxCell>
        <mxCell id="N0Xd9c7wZlWknfisk5Qr-97" value="Display Data" style="text;html=1;align=center;verticalAlign=middle;resizable=0;points=[];autosize=1;strokeColor=none;fillColor=none;opacity=40;" parent="1" vertex="1">
          <mxGeometry x="235" y="1065" width="90" height="30" as="geometry" />
        </mxCell>
        <mxCell id="N0Xd9c7wZlWknfisk5Qr-98" style="edgeStyle=orthogonalEdgeStyle;rounded=0;orthogonalLoop=1;jettySize=auto;html=1;startArrow=classic;startFill=1;opacity=40;" parent="1" source="N0Xd9c7wZlWknfisk5Qr-99" target="N0Xd9c7wZlWknfisk5Qr-91" edge="1">
          <mxGeometry relative="1" as="geometry" />
        </mxCell>
        <mxCell id="N0Xd9c7wZlWknfisk5Qr-99" value="Historical Data Database" style="rounded=1;whiteSpace=wrap;html=1;opacity=40;" parent="1" vertex="1">
          <mxGeometry x="330" y="1410" width="110" height="50" as="geometry" />
        </mxCell>
        <mxCell id="N0Xd9c7wZlWknfisk5Qr-100" value="" style="sketch=0;outlineConnect=0;dashed=0;verticalLabelPosition=bottom;verticalAlign=top;align=center;html=1;fontSize=12;fontStyle=0;aspect=fixed;shape=mxgraph.aws4.resourceIcon;resIcon=mxgraph.aws4.generic_database;opacity=40;" parent="1" vertex="1">
          <mxGeometry x="285" y="1415" width="40" height="40" as="geometry" />
        </mxCell>
        <mxCell id="N0Xd9c7wZlWknfisk5Qr-101" value="DB connection" style="text;html=1;align=center;verticalAlign=middle;resizable=0;points=[];autosize=1;strokeColor=none;fillColor=none;opacity=40;" parent="1" vertex="1">
          <mxGeometry x="340" y="1350" width="100" height="30" as="geometry" />
        </mxCell>
        <mxCell id="N0Xd9c7wZlWknfisk5Qr-102" value="Retrieve and Store Historical Data" style="text;html=1;align=center;verticalAlign=middle;resizable=0;points=[];autosize=1;strokeColor=none;fillColor=none;opacity=40;" parent="1" vertex="1">
          <mxGeometry x="340" y="1246" width="200" height="30" as="geometry" />
        </mxCell>
        <mxCell id="N0Xd9c7wZlWknfisk5Qr-103" value="Proccess User Request" style="text;html=1;align=center;verticalAlign=middle;resizable=0;points=[];autosize=1;strokeColor=none;fillColor=none;opacity=40;" parent="1" vertex="1">
          <mxGeometry x="330" y="1065" width="150" height="30" as="geometry" />
        </mxCell>
        <mxCell id="N0Xd9c7wZlWknfisk5Qr-107" value="Administrative Access" style="text;html=1;align=center;verticalAlign=middle;resizable=0;points=[];autosize=1;strokeColor=none;fillColor=none;opacity=40;" parent="1" vertex="1">
          <mxGeometry x="505" y="1105" width="140" height="30" as="geometry" />
        </mxCell>
        <mxCell id="N0Xd9c7wZlWknfisk5Qr-110" value="USE-CASE 2 :Get The Fundamental Analysis on a sellected Stock" style="text;html=1;align=center;verticalAlign=middle;resizable=0;points=[];autosize=1;strokeColor=none;fillColor=none;opacity=40;" parent="1" vertex="1">
          <mxGeometry x="250" y="880" width="380" height="30" as="geometry" />
        </mxCell>
        <mxCell id="N0Xd9c7wZlWknfisk5Qr-111" value="" style="shape=waypoint;sketch=0;size=6;pointerEvents=1;points=[];fillColor=#1ba1e2;resizable=0;rotatable=0;perimeter=centerPerimeter;snapToPoint=1;strokeWidth=9;fontColor=#ffffff;strokeColor=#006EAF;" parent="1" vertex="1">
          <mxGeometry x="160" y="980" width="20" height="20" as="geometry" />
        </mxCell>
        <mxCell id="N0Xd9c7wZlWknfisk5Qr-113" value="" style="rounded=0;whiteSpace=wrap;html=1;fillColor=#006eaf;fontColor=#ffffff;strokeColor=#006EAF;" parent="1" vertex="1">
          <mxGeometry x="165" y="930" width="10" height="40" as="geometry" />
        </mxCell>
        <mxCell id="N0Xd9c7wZlWknfisk5Qr-114" value="Stock Analysis Request" style="text;html=1;align=center;verticalAlign=middle;resizable=0;points=[];autosize=1;opacity=40;fontColor=#006eaf;" parent="1" vertex="1">
          <mxGeometry x="80" y="1005" width="150" height="30" as="geometry" />
        </mxCell>
        <mxCell id="N0Xd9c7wZlWknfisk5Qr-115" value="Display stock analysis" style="text;html=1;align=center;verticalAlign=middle;resizable=0;points=[];autosize=1;strokeColor=none;fillColor=none;opacity=40;fontColor=#006eaf;" parent="1" vertex="1">
          <mxGeometry x="220" y="920" width="140" height="30" as="geometry" />
        </mxCell>
        <mxCell id="N0Xd9c7wZlWknfisk5Qr-116" value="Get Current stock Data" style="text;html=1;align=center;verticalAlign=middle;resizable=0;points=[];autosize=1;strokeColor=none;fillColor=none;opacity=40;fontColor=#006eaf;" parent="1" vertex="1">
          <mxGeometry x="130" y="1140" width="150" height="30" as="geometry" />
        </mxCell>
        <mxCell id="N0Xd9c7wZlWknfisk5Qr-117" value="Get Historical stock Data" style="text;html=1;align=center;verticalAlign=middle;resizable=0;points=[];autosize=1;strokeColor=none;fillColor=none;opacity=40;fontColor=#006eaf;" parent="1" vertex="1">
          <mxGeometry x="190" y="1380" width="160" height="30" as="geometry" />
        </mxCell>
        <mxCell id="N0Xd9c7wZlWknfisk5Qr-118" value="Fundamentally Analyse stock Data" style="text;html=1;align=center;verticalAlign=middle;resizable=0;points=[];autosize=1;strokeColor=none;fillColor=none;opacity=40;fontColor=#006eaf;" parent="1" vertex="1">
          <mxGeometry x="715" y="1320" width="210" height="30" as="geometry" />
        </mxCell>
        <mxCell id="N0Xd9c7wZlWknfisk5Qr-119" style="edgeStyle=orthogonalEdgeStyle;rounded=0;orthogonalLoop=1;jettySize=auto;html=1;startArrow=classic;startFill=1;endArrow=none;endFill=0;opacity=40;" parent="1" source="N0Xd9c7wZlWknfisk5Qr-121" target="N0Xd9c7wZlWknfisk5Qr-125" edge="1">
          <mxGeometry relative="1" as="geometry">
            <mxPoint x="1340" y="1250" as="targetPoint" />
            <Array as="points">
              <mxPoint x="1340" y="1180" />
              <mxPoint x="1340" y="1180" />
            </Array>
          </mxGeometry>
        </mxCell>
        <mxCell id="N0Xd9c7wZlWknfisk5Qr-120" style="edgeStyle=orthogonalEdgeStyle;rounded=0;orthogonalLoop=1;jettySize=auto;html=1;opacity=40;" parent="1" source="N0Xd9c7wZlWknfisk5Qr-121" target="N0Xd9c7wZlWknfisk5Qr-125" edge="1">
          <mxGeometry relative="1" as="geometry" />
        </mxCell>
        <mxCell id="N0Xd9c7wZlWknfisk5Qr-121" value="Stock Exchange App User Interface" style="rounded=1;whiteSpace=wrap;html=1;opacity=40;" parent="1" vertex="1">
          <mxGeometry x="1290" y="1030" width="140" height="70" as="geometry" />
        </mxCell>
        <mxCell id="N0Xd9c7wZlWknfisk5Qr-122" style="edgeStyle=orthogonalEdgeStyle;rounded=0;orthogonalLoop=1;jettySize=auto;html=1;startArrow=classic;startFill=1;endArrow=none;endFill=0;opacity=40;" parent="1" source="N0Xd9c7wZlWknfisk5Qr-125" target="N0Xd9c7wZlWknfisk5Qr-126" edge="1">
          <mxGeometry relative="1" as="geometry">
            <mxPoint x="1280" y="1350" as="targetPoint" />
            <Array as="points">
              <mxPoint x="1210" y="1260" />
            </Array>
          </mxGeometry>
        </mxCell>
        <mxCell id="N0Xd9c7wZlWknfisk5Qr-123" style="edgeStyle=orthogonalEdgeStyle;rounded=0;orthogonalLoop=1;jettySize=auto;html=1;startArrow=classic;startFill=1;endArrow=classic;endFill=1;opacity=40;" parent="1" source="N0Xd9c7wZlWknfisk5Qr-125" target="N0Xd9c7wZlWknfisk5Qr-130" edge="1">
          <mxGeometry relative="1" as="geometry">
            <mxPoint x="1360" y="1330" as="targetPoint" />
          </mxGeometry>
        </mxCell>
        <mxCell id="N0Xd9c7wZlWknfisk5Qr-125" value="Bussiness Logic" style="rounded=1;whiteSpace=wrap;html=1;opacity=40;" parent="1" vertex="1">
          <mxGeometry x="1300" y="1220" width="120" height="60" as="geometry" />
        </mxCell>
        <mxCell id="N0Xd9c7wZlWknfisk5Qr-126" value="Real-time Data fetch by web scraping" style="rounded=1;whiteSpace=wrap;html=1;opacity=40;" parent="1" vertex="1">
          <mxGeometry x="1150" y="1290" width="120" height="60" as="geometry" />
        </mxCell>
        <mxCell id="N0Xd9c7wZlWknfisk5Qr-127" style="rounded=0;orthogonalLoop=1;jettySize=auto;html=1;startArrow=classic;startFill=1;opacity=40;" parent="1" source="N0Xd9c7wZlWknfisk5Qr-128" target="N0Xd9c7wZlWknfisk5Qr-126" edge="1">
          <mxGeometry relative="1" as="geometry" />
        </mxCell>
        <mxCell id="N0Xd9c7wZlWknfisk5Qr-128" value="MSE Website" style="ellipse;whiteSpace=wrap;html=1;opacity=40;" parent="1" vertex="1">
          <mxGeometry x="1160" y="1400" width="70" height="60" as="geometry" />
        </mxCell>
        <mxCell id="N0Xd9c7wZlWknfisk5Qr-129" value="Retrieve Real-time Data" style="text;html=1;align=center;verticalAlign=middle;resizable=0;points=[];autosize=1;strokeColor=none;fillColor=none;opacity=40;" parent="1" vertex="1">
          <mxGeometry x="1150" y="1230" width="150" height="30" as="geometry" />
        </mxCell>
        <mxCell id="N0Xd9c7wZlWknfisk5Qr-130" value="Data Access" style="rounded=1;whiteSpace=wrap;html=1;opacity=40;" parent="1" vertex="1">
          <mxGeometry x="1305" y="1350" width="110" height="50" as="geometry" />
        </mxCell>
        <mxCell id="N0Xd9c7wZlWknfisk5Qr-131" value="" style="strokeWidth=3;outlineConnect=0;dashed=0;align=center;fontSize=8;shape=mxgraph.eip.messExp;html=1;verticalLabelPosition=bottom;verticalAlign=top;opacity=40;" parent="1" vertex="1">
          <mxGeometry x="1110" y="1306" width="28" height="28" as="geometry" />
        </mxCell>
        <mxCell id="N0Xd9c7wZlWknfisk5Qr-132" value="Users" style="sketch=0;outlineConnect=0;dashed=0;verticalLabelPosition=bottom;verticalAlign=top;align=center;html=1;fontSize=12;fontStyle=0;aspect=fixed;shape=mxgraph.aws4.resourceIcon;resIcon=mxgraph.aws4.user;fontColor=default;opacity=40;" parent="1" vertex="1">
          <mxGeometry x="1240" y="1045" width="40" height="40" as="geometry" />
        </mxCell>
        <mxCell id="N0Xd9c7wZlWknfisk5Qr-133" style="edgeStyle=orthogonalEdgeStyle;rounded=0;orthogonalLoop=1;jettySize=auto;html=1;opacity=40;" parent="1" source="N0Xd9c7wZlWknfisk5Qr-134" target="N0Xd9c7wZlWknfisk5Qr-125" edge="1">
          <mxGeometry relative="1" as="geometry">
            <Array as="points">
              <mxPoint x="1640" y="1170" />
              <mxPoint x="1390" y="1170" />
            </Array>
          </mxGeometry>
        </mxCell>
        <mxCell id="N0Xd9c7wZlWknfisk5Qr-134" value="StockExchangeApp Admin panel" style="rounded=1;whiteSpace=wrap;html=1;opacity=40;" parent="1" vertex="1">
          <mxGeometry x="1570" y="1030" width="140" height="70" as="geometry" />
        </mxCell>
        <mxCell id="N0Xd9c7wZlWknfisk5Qr-135" value="Admin" style="sketch=0;outlineConnect=0;dashed=0;verticalLabelPosition=bottom;verticalAlign=top;align=center;html=1;fontSize=12;fontStyle=0;aspect=fixed;shape=mxgraph.aws4.resourceIcon;resIcon=mxgraph.aws4.user;fontColor=default;opacity=40;" parent="1" vertex="1">
          <mxGeometry x="1520" y="1045" width="40" height="40" as="geometry" />
        </mxCell>
        <mxCell id="N0Xd9c7wZlWknfisk5Qr-136" value="Display Data" style="text;html=1;align=center;verticalAlign=middle;resizable=0;points=[];autosize=1;strokeColor=none;fillColor=none;opacity=40;" parent="1" vertex="1">
          <mxGeometry x="1255" y="1125" width="90" height="30" as="geometry" />
        </mxCell>
        <mxCell id="N0Xd9c7wZlWknfisk5Qr-137" style="edgeStyle=orthogonalEdgeStyle;rounded=0;orthogonalLoop=1;jettySize=auto;html=1;startArrow=classic;startFill=1;opacity=40;" parent="1" source="N0Xd9c7wZlWknfisk5Qr-138" target="N0Xd9c7wZlWknfisk5Qr-130" edge="1">
          <mxGeometry relative="1" as="geometry" />
        </mxCell>
        <mxCell id="N0Xd9c7wZlWknfisk5Qr-138" value="Historical Data Database" style="rounded=1;whiteSpace=wrap;html=1;opacity=40;" parent="1" vertex="1">
          <mxGeometry x="1350" y="1470" width="110" height="50" as="geometry" />
        </mxCell>
        <mxCell id="N0Xd9c7wZlWknfisk5Qr-139" value="" style="sketch=0;outlineConnect=0;dashed=0;verticalLabelPosition=bottom;verticalAlign=top;align=center;html=1;fontSize=12;fontStyle=0;aspect=fixed;shape=mxgraph.aws4.resourceIcon;resIcon=mxgraph.aws4.generic_database;opacity=40;" parent="1" vertex="1">
          <mxGeometry x="1305" y="1475" width="40" height="40" as="geometry" />
        </mxCell>
        <mxCell id="N0Xd9c7wZlWknfisk5Qr-140" value="DB connection" style="text;html=1;align=center;verticalAlign=middle;resizable=0;points=[];autosize=1;strokeColor=none;fillColor=none;opacity=40;" parent="1" vertex="1">
          <mxGeometry x="1360" y="1410" width="100" height="30" as="geometry" />
        </mxCell>
        <mxCell id="N0Xd9c7wZlWknfisk5Qr-141" value="Retrieve and Store Historical Data" style="text;html=1;align=center;verticalAlign=middle;resizable=0;points=[];autosize=1;strokeColor=none;fillColor=none;opacity=40;" parent="1" vertex="1">
          <mxGeometry x="1360" y="1320" width="200" height="30" as="geometry" />
        </mxCell>
        <mxCell id="N0Xd9c7wZlWknfisk5Qr-142" value="Proccess User Request" style="text;html=1;align=center;verticalAlign=middle;resizable=0;points=[];autosize=1;strokeColor=none;fillColor=none;opacity=40;" parent="1" vertex="1">
          <mxGeometry x="1350" y="1125" width="150" height="30" as="geometry" />
        </mxCell>
        <mxCell id="N0Xd9c7wZlWknfisk5Qr-146" value="Administrative Access" style="text;html=1;align=center;verticalAlign=middle;resizable=0;points=[];autosize=1;strokeColor=none;fillColor=none;opacity=40;" parent="1" vertex="1">
          <mxGeometry x="1525" y="1165" width="140" height="30" as="geometry" />
        </mxCell>
        <mxCell id="N0Xd9c7wZlWknfisk5Qr-149" value="USE-CASE 3 :Get predictions on a sellected Stock" style="text;html=1;align=center;verticalAlign=middle;resizable=0;points=[];autosize=1;strokeColor=none;fillColor=none;opacity=40;" parent="1" vertex="1">
          <mxGeometry x="1315" y="940" width="290" height="30" as="geometry" />
        </mxCell>
        <mxCell id="N0Xd9c7wZlWknfisk5Qr-150" value="" style="shape=waypoint;sketch=0;size=6;pointerEvents=1;points=[];fillColor=#1ba1e2;resizable=0;rotatable=0;perimeter=centerPerimeter;snapToPoint=1;strokeWidth=9;fontColor=#ffffff;strokeColor=#006EAF;" parent="1" vertex="1">
          <mxGeometry x="1180" y="1040" width="20" height="20" as="geometry" />
        </mxCell>
        <mxCell id="N0Xd9c7wZlWknfisk5Qr-152" value="" style="rounded=0;whiteSpace=wrap;html=1;fillColor=#006eaf;fontColor=#ffffff;strokeColor=#006EAF;" parent="1" vertex="1">
          <mxGeometry x="1185" y="990" width="10" height="40" as="geometry" />
        </mxCell>
        <mxCell id="N0Xd9c7wZlWknfisk5Qr-153" value="Stock prediction Request" style="text;html=1;align=center;verticalAlign=middle;resizable=0;points=[];autosize=1;opacity=40;fontColor=#006eaf;" parent="1" vertex="1">
          <mxGeometry x="1095" y="1065" width="160" height="30" as="geometry" />
        </mxCell>
        <mxCell id="N0Xd9c7wZlWknfisk5Qr-154" value="Display stock predictions" style="text;html=1;align=center;verticalAlign=middle;resizable=0;points=[];autosize=1;strokeColor=none;fillColor=none;opacity=40;fontColor=#006eaf;" parent="1" vertex="1">
          <mxGeometry x="1230" y="980" width="160" height="30" as="geometry" />
        </mxCell>
        <mxCell id="N0Xd9c7wZlWknfisk5Qr-155" value="Get Current stock Data" style="text;html=1;align=center;verticalAlign=middle;resizable=0;points=[];autosize=1;strokeColor=none;fillColor=none;opacity=40;fontColor=#006eaf;" parent="1" vertex="1">
          <mxGeometry x="1150" y="1200" width="150" height="30" as="geometry" />
        </mxCell>
        <mxCell id="N0Xd9c7wZlWknfisk5Qr-156" value="Get Historical stock Data" style="text;html=1;align=center;verticalAlign=middle;resizable=0;points=[];autosize=1;strokeColor=none;fillColor=none;opacity=40;fontColor=#006eaf;" parent="1" vertex="1">
          <mxGeometry x="1210" y="1440" width="160" height="30" as="geometry" />
        </mxCell>
        <mxCell id="N0Xd9c7wZlWknfisk5Qr-157" value="Get predictions on stock with the current stock Data" style="text;html=1;align=center;verticalAlign=middle;resizable=0;points=[];autosize=1;strokeColor=none;fillColor=none;opacity=40;fontColor=#006eaf;" parent="1" vertex="1">
          <mxGeometry x="1750" y="1070" width="300" height="30" as="geometry" />
        </mxCell>
        <mxCell id="RJl0ZuyL9O1yvJZJJFE5-1" value="&lt;font style=&quot;font-size: 28px;&quot;&gt;Conceptual view of The Stock Exange Application&lt;/font&gt;" style="text;html=1;align=center;verticalAlign=middle;resizable=0;points=[];autosize=1;strokeColor=none;fillColor=none;" parent="1" vertex="1">
          <mxGeometry x="85" y="140" width="640" height="50" as="geometry" />
        </mxCell>
        <mxCell id="KUy_TzX36_KHFsjLlA8I-2" style="edgeStyle=orthogonalEdgeStyle;rounded=0;orthogonalLoop=1;jettySize=auto;html=1;startArrow=classic;startFill=1;" parent="1" source="gKmf_tGoP0ItRs4sD-Lh-1" target="KUy_TzX36_KHFsjLlA8I-1" edge="1">
          <mxGeometry relative="1" as="geometry">
            <Array as="points">
              <mxPoint x="800" y="520" />
            </Array>
          </mxGeometry>
        </mxCell>
        <mxCell id="gKmf_tGoP0ItRs4sD-Lh-1" value="Analysis Engine" style="rounded=1;whiteSpace=wrap;html=1;" parent="1" vertex="1">
          <mxGeometry x="550" y="490" width="120" height="60" as="geometry" />
        </mxCell>
        <mxCell id="gKmf_tGoP0ItRs4sD-Lh-4" value="&lt;div style=&quot;text-align: center;&quot;&gt;&lt;span style=&quot;background-color: initial; text-wrap: nowrap;&quot;&gt;Get the analysis for the selected Stock&lt;/span&gt;&lt;/div&gt;" style="text;whiteSpace=wrap;html=1;" parent="1" vertex="1">
          <mxGeometry x="330" y="455" width="210" height="40" as="geometry" />
        </mxCell>
        <mxCell id="gKmf_tGoP0ItRs4sD-Lh-5" style="edgeStyle=orthogonalEdgeStyle;rounded=0;orthogonalLoop=1;jettySize=auto;html=1;startArrow=classic;startFill=1;" parent="1" source="gKmf_tGoP0ItRs4sD-Lh-13" target="gKmf_tGoP0ItRs4sD-Lh-7" edge="1">
          <mxGeometry relative="1" as="geometry">
            <Array as="points">
              <mxPoint x="1580" y="635" />
              <mxPoint x="1580" y="635" />
            </Array>
          </mxGeometry>
        </mxCell>
        <mxCell id="gKmf_tGoP0ItRs4sD-Lh-6" style="edgeStyle=orthogonalEdgeStyle;rounded=0;orthogonalLoop=1;jettySize=auto;html=1;startArrow=classic;startFill=1;" parent="1" target="gKmf_tGoP0ItRs4sD-Lh-13" edge="1">
          <mxGeometry relative="1" as="geometry">
            <mxPoint x="1290" y="465" as="sourcePoint" />
            <Array as="points">
              <mxPoint x="1290" y="466" />
              <mxPoint x="1406" y="466" />
              <mxPoint x="1406" y="510" />
            </Array>
          </mxGeometry>
        </mxCell>
        <mxCell id="gKmf_tGoP0ItRs4sD-Lh-7" value="Fundamental Analysis Engine" style="rounded=1;whiteSpace=wrap;html=1;" parent="1" vertex="1">
          <mxGeometry x="1550" y="690" width="120" height="60" as="geometry" />
        </mxCell>
        <mxCell id="gKmf_tGoP0ItRs4sD-Lh-8" style="edgeStyle=orthogonalEdgeStyle;rounded=0;orthogonalLoop=1;jettySize=auto;html=1;startArrow=classic;startFill=1;" parent="1" source="gKmf_tGoP0ItRs4sD-Lh-9" target="gKmf_tGoP0ItRs4sD-Lh-13" edge="1">
          <mxGeometry relative="1" as="geometry">
            <Array as="points">
              <mxPoint x="1550" y="405" />
            </Array>
          </mxGeometry>
        </mxCell>
        <mxCell id="gKmf_tGoP0ItRs4sD-Lh-9" value="Prediction (LSTM) Engine" style="rounded=1;whiteSpace=wrap;html=1;" parent="1" vertex="1">
          <mxGeometry x="1685" y="320" width="120" height="60" as="geometry" />
        </mxCell>
        <mxCell id="gKmf_tGoP0ItRs4sD-Lh-11" value="Analysis on Requested Data and Response" style="text;html=1;align=center;verticalAlign=middle;resizable=0;points=[];autosize=1;strokeColor=none;fillColor=none;" parent="1" vertex="1">
          <mxGeometry x="1580" y="625" width="260" height="30" as="geometry" />
        </mxCell>
        <mxCell id="gKmf_tGoP0ItRs4sD-Lh-12" value="Predictions on Requested Data and Response" style="text;html=1;align=center;verticalAlign=middle;resizable=0;points=[];autosize=1;strokeColor=none;fillColor=none;" parent="1" vertex="1">
          <mxGeometry x="1560" y="410" width="270" height="30" as="geometry" />
        </mxCell>
        <mxCell id="gKmf_tGoP0ItRs4sD-Lh-13" value="Analysis Engine" style="rounded=1;whiteSpace=wrap;html=1;" parent="1" vertex="1">
          <mxGeometry x="1520" y="475" width="120" height="60" as="geometry" />
        </mxCell>
        <mxCell id="gKmf_tGoP0ItRs4sD-Lh-14" value="&lt;div style=&quot;text-align: center;&quot;&gt;&lt;span style=&quot;background-color: initial; text-wrap: nowrap;&quot;&gt;Get the analysis for the selected Stock&lt;/span&gt;&lt;/div&gt;" style="text;whiteSpace=wrap;html=1;" parent="1" vertex="1">
          <mxGeometry x="1310" y="440" width="210" height="40" as="geometry" />
        </mxCell>
        <mxCell id="gKmf_tGoP0ItRs4sD-Lh-15" style="edgeStyle=orthogonalEdgeStyle;rounded=0;orthogonalLoop=1;jettySize=auto;html=1;startArrow=classic;startFill=1;" parent="1" source="gKmf_tGoP0ItRs4sD-Lh-23" target="gKmf_tGoP0ItRs4sD-Lh-17" edge="1">
          <mxGeometry relative="1" as="geometry">
            <Array as="points">
              <mxPoint x="690" y="1360" />
              <mxPoint x="690" y="1360" />
            </Array>
          </mxGeometry>
        </mxCell>
        <mxCell id="gKmf_tGoP0ItRs4sD-Lh-16" style="edgeStyle=orthogonalEdgeStyle;rounded=0;orthogonalLoop=1;jettySize=auto;html=1;startArrow=classic;startFill=1;" parent="1" target="gKmf_tGoP0ItRs4sD-Lh-23" edge="1">
          <mxGeometry relative="1" as="geometry">
            <mxPoint x="400" y="1190" as="sourcePoint" />
            <Array as="points">
              <mxPoint x="516" y="1191" />
              <mxPoint x="516" y="1230" />
            </Array>
          </mxGeometry>
        </mxCell>
        <mxCell id="gKmf_tGoP0ItRs4sD-Lh-17" value="Fundamental Analysis Engine" style="rounded=1;whiteSpace=wrap;html=1;" parent="1" vertex="1">
          <mxGeometry x="640" y="1415" width="120" height="60" as="geometry" />
        </mxCell>
        <mxCell id="gKmf_tGoP0ItRs4sD-Lh-18" style="edgeStyle=orthogonalEdgeStyle;rounded=0;orthogonalLoop=1;jettySize=auto;html=1;startArrow=classic;startFill=1;" parent="1" source="gKmf_tGoP0ItRs4sD-Lh-19" target="gKmf_tGoP0ItRs4sD-Lh-23" edge="1">
          <mxGeometry relative="1" as="geometry">
            <Array as="points">
              <mxPoint x="660" y="1130" />
            </Array>
          </mxGeometry>
        </mxCell>
        <mxCell id="gKmf_tGoP0ItRs4sD-Lh-19" value="Prediction (LSTM) Engine" style="rounded=1;whiteSpace=wrap;html=1;" parent="1" vertex="1">
          <mxGeometry x="795" y="1045" width="120" height="60" as="geometry" />
        </mxCell>
        <mxCell id="gKmf_tGoP0ItRs4sD-Lh-20" value="Administrative Access" style="text;html=1;align=center;verticalAlign=middle;resizable=0;points=[];autosize=1;strokeColor=none;fillColor=none;" parent="1" vertex="1">
          <mxGeometry x="505" y="1105" width="140" height="30" as="geometry" />
        </mxCell>
        <mxCell id="gKmf_tGoP0ItRs4sD-Lh-22" value="Predictions on Requested Data and Response" style="text;html=1;align=center;verticalAlign=middle;resizable=0;points=[];autosize=1;strokeColor=none;fillColor=none;" parent="1" vertex="1">
          <mxGeometry x="670" y="1135" width="270" height="30" as="geometry" />
        </mxCell>
        <mxCell id="gKmf_tGoP0ItRs4sD-Lh-23" value="Analysis Engine" style="rounded=1;whiteSpace=wrap;html=1;" parent="1" vertex="1">
          <mxGeometry x="630" y="1200" width="120" height="60" as="geometry" />
        </mxCell>
        <mxCell id="gKmf_tGoP0ItRs4sD-Lh-24" value="&lt;div style=&quot;text-align: center;&quot;&gt;&lt;span style=&quot;background-color: initial; text-wrap: nowrap;&quot;&gt;Get the analysis for the selected Stock&lt;/span&gt;&lt;/div&gt;" style="text;whiteSpace=wrap;html=1;" parent="1" vertex="1">
          <mxGeometry x="410" y="1165" width="210" height="40" as="geometry" />
        </mxCell>
        <mxCell id="N0Xd9c7wZlWknfisk5Qr-112" value="" style="edgeStyle=orthogonalEdgeStyle;rounded=1;orthogonalLoop=1;jettySize=auto;html=1;strokeColor=#006EAF;fillColor=#1ba1e2;flowAnimation=0;curved=0;strokeWidth=7;shadow=0;endArrow=none;endFill=0;entryX=1;entryY=0.5;entryDx=0;entryDy=0;" parent="1" edge="1">
          <mxGeometry relative="1" as="geometry">
            <mxPoint x="175" y="950" as="targetPoint" />
            <mxPoint x="160" y="990" as="sourcePoint" />
            <Array as="points">
              <mxPoint x="330" y="990" />
              <mxPoint x="330" y="1170" />
              <mxPoint x="170" y="1170" />
              <mxPoint x="170" y="1270" />
              <mxPoint x="220" y="1270" />
              <mxPoint x="220" y="1210" />
              <mxPoint x="350" y="1210" />
              <mxPoint x="350" y="1440" />
              <mxPoint x="370" y="1440" />
              <mxPoint x="370" y="1200" />
              <mxPoint x="680" y="1200" />
              <mxPoint x="680" y="1450" />
              <mxPoint x="720" y="1450" />
              <mxPoint x="720" y="1170" />
              <mxPoint x="350" y="1170" />
              <mxPoint x="350" y="950" />
            </Array>
          </mxGeometry>
        </mxCell>
        <mxCell id="gKmf_tGoP0ItRs4sD-Lh-25" style="edgeStyle=orthogonalEdgeStyle;rounded=0;orthogonalLoop=1;jettySize=auto;html=1;startArrow=classic;startFill=1;" parent="1" source="gKmf_tGoP0ItRs4sD-Lh-33" target="gKmf_tGoP0ItRs4sD-Lh-27" edge="1">
          <mxGeometry relative="1" as="geometry">
            <Array as="points">
              <mxPoint x="1710" y="1420" />
              <mxPoint x="1710" y="1420" />
            </Array>
          </mxGeometry>
        </mxCell>
        <mxCell id="gKmf_tGoP0ItRs4sD-Lh-26" style="edgeStyle=orthogonalEdgeStyle;rounded=0;orthogonalLoop=1;jettySize=auto;html=1;startArrow=classic;startFill=1;" parent="1" target="gKmf_tGoP0ItRs4sD-Lh-33" edge="1">
          <mxGeometry relative="1" as="geometry">
            <mxPoint x="1420" y="1250" as="sourcePoint" />
            <Array as="points">
              <mxPoint x="1536" y="1251" />
              <mxPoint x="1536" y="1276" />
            </Array>
          </mxGeometry>
        </mxCell>
        <mxCell id="gKmf_tGoP0ItRs4sD-Lh-27" value="Fundamental Analysis Engine" style="rounded=1;whiteSpace=wrap;html=1;" parent="1" vertex="1">
          <mxGeometry x="1680" y="1475" width="120" height="60" as="geometry" />
        </mxCell>
        <mxCell id="gKmf_tGoP0ItRs4sD-Lh-28" style="edgeStyle=orthogonalEdgeStyle;rounded=0;orthogonalLoop=1;jettySize=auto;html=1;startArrow=classic;startFill=1;" parent="1" source="gKmf_tGoP0ItRs4sD-Lh-29" target="gKmf_tGoP0ItRs4sD-Lh-33" edge="1">
          <mxGeometry relative="1" as="geometry">
            <Array as="points">
              <mxPoint x="1680" y="1190" />
            </Array>
          </mxGeometry>
        </mxCell>
        <mxCell id="gKmf_tGoP0ItRs4sD-Lh-29" value="Prediction (LSTM) Engine" style="rounded=1;whiteSpace=wrap;html=1;" parent="1" vertex="1">
          <mxGeometry x="1815" y="1105" width="120" height="60" as="geometry" />
        </mxCell>
        <mxCell id="gKmf_tGoP0ItRs4sD-Lh-31" value="Analysis on Requested Data and Response" style="text;html=1;align=center;verticalAlign=middle;resizable=0;points=[];autosize=1;strokeColor=none;fillColor=none;" parent="1" vertex="1">
          <mxGeometry x="1710" y="1410" width="260" height="30" as="geometry" />
        </mxCell>
        <mxCell id="gKmf_tGoP0ItRs4sD-Lh-32" value="Predictions on Requested Data and Response" style="text;html=1;align=center;verticalAlign=middle;resizable=0;points=[];autosize=1;strokeColor=none;fillColor=none;" parent="1" vertex="1">
          <mxGeometry x="1690" y="1190" width="270" height="30" as="geometry" />
        </mxCell>
        <mxCell id="gKmf_tGoP0ItRs4sD-Lh-33" value="Analysis Engine" style="rounded=1;whiteSpace=wrap;html=1;" parent="1" vertex="1">
          <mxGeometry x="1650" y="1231" width="120" height="60" as="geometry" />
        </mxCell>
        <mxCell id="gKmf_tGoP0ItRs4sD-Lh-34" value="&lt;div style=&quot;text-align: center;&quot;&gt;&lt;span style=&quot;background-color: initial; text-wrap: nowrap;&quot;&gt;Get the analysis for the selected Stock&lt;/span&gt;&lt;/div&gt;" style="text;whiteSpace=wrap;html=1;" parent="1" vertex="1">
          <mxGeometry x="1430" y="1225" width="210" height="40" as="geometry" />
        </mxCell>
        <mxCell id="N0Xd9c7wZlWknfisk5Qr-151" value="" style="edgeStyle=orthogonalEdgeStyle;rounded=1;orthogonalLoop=1;jettySize=auto;html=1;strokeColor=#006EAF;fillColor=#1ba1e2;flowAnimation=0;curved=0;strokeWidth=7;shadow=0;endArrow=none;endFill=0;entryX=1;entryY=0.5;entryDx=0;entryDy=0;" parent="1" target="N0Xd9c7wZlWknfisk5Qr-152" edge="1">
          <mxGeometry relative="1" as="geometry">
            <mxPoint x="1430" y="1200" as="targetPoint" />
            <mxPoint x="1190" y="1050" as="sourcePoint" />
            <Array as="points">
              <mxPoint x="1360" y="1050" />
              <mxPoint x="1360" y="1230" />
              <mxPoint x="1200" y="1230" />
              <mxPoint x="1200" y="1330" />
              <mxPoint x="1250" y="1330" />
              <mxPoint x="1250" y="1270" />
              <mxPoint x="1370" y="1270" />
              <mxPoint x="1370" y="1500" />
              <mxPoint x="1400" y="1500" />
              <mxPoint x="1400" y="1270" />
              <mxPoint x="1760" y="1270" />
              <mxPoint x="1760" y="1200" />
              <mxPoint x="1920" y="1200" />
              <mxPoint x="1920" y="1110" />
              <mxPoint x="1840" y="1110" />
              <mxPoint x="1840" y="1180" />
              <mxPoint x="1690" y="1180" />
              <mxPoint x="1690" y="1260" />
              <mxPoint x="1390" y="1260" />
              <mxPoint x="1390" y="1010" />
            </Array>
          </mxGeometry>
        </mxCell>
        <mxCell id="KUy_TzX36_KHFsjLlA8I-1" value="Technical Analysis Engine" style="rounded=1;whiteSpace=wrap;html=1;" parent="1" vertex="1">
          <mxGeometry x="745" y="535" width="120" height="60" as="geometry" />
        </mxCell>
        <mxCell id="KUy_TzX36_KHFsjLlA8I-3" value="&lt;span style=&quot;color: rgb(240, 240, 240); font-family: Helvetica; font-size: 12px; font-style: normal; font-variant-ligatures: normal; font-variant-caps: normal; font-weight: 400; letter-spacing: normal; orphans: 2; text-align: center; text-indent: 0px; text-transform: none; widows: 2; word-spacing: 0px; -webkit-text-stroke-width: 0px; white-space: nowrap; background-color: rgb(27, 29, 30); text-decoration-thickness: initial; text-decoration-style: initial; text-decoration-color: initial; display: inline !important; float: none;&quot;&gt;Basic Analysis on Requested Data&amp;nbsp;&lt;/span&gt;" style="text;whiteSpace=wrap;html=1;" parent="1" vertex="1">
          <mxGeometry x="700" y="490" width="190" height="40" as="geometry" />
        </mxCell>
        <mxCell id="KUy_TzX36_KHFsjLlA8I-6" style="edgeStyle=orthogonalEdgeStyle;rounded=0;orthogonalLoop=1;jettySize=auto;html=1;" parent="1" source="KUy_TzX36_KHFsjLlA8I-4" target="gKmf_tGoP0ItRs4sD-Lh-13" edge="1">
          <mxGeometry relative="1" as="geometry">
            <Array as="points">
              <mxPoint x="1760" y="505" />
            </Array>
          </mxGeometry>
        </mxCell>
        <mxCell id="KUy_TzX36_KHFsjLlA8I-4" value="Technical Analysis Engine" style="rounded=1;whiteSpace=wrap;html=1;" parent="1" vertex="1">
          <mxGeometry x="1705" y="525" width="120" height="60" as="geometry" />
        </mxCell>
        <mxCell id="KUy_TzX36_KHFsjLlA8I-5" value="&lt;span style=&quot;color: rgb(240, 240, 240); font-family: Helvetica; font-size: 12px; font-style: normal; font-variant-ligatures: normal; font-variant-caps: normal; font-weight: 400; letter-spacing: normal; orphans: 2; text-align: center; text-indent: 0px; text-transform: none; widows: 2; word-spacing: 0px; -webkit-text-stroke-width: 0px; white-space: nowrap; background-color: rgb(27, 29, 30); text-decoration-thickness: initial; text-decoration-style: initial; text-decoration-color: initial; display: inline !important; float: none;&quot;&gt;Basic Analysis on Requested Data&amp;nbsp;&lt;/span&gt;" style="text;whiteSpace=wrap;html=1;" parent="1" vertex="1">
          <mxGeometry x="1660" y="480" width="190" height="40" as="geometry" />
        </mxCell>
        <mxCell id="N0Xd9c7wZlWknfisk5Qr-75" value="" style="edgeStyle=orthogonalEdgeStyle;rounded=1;orthogonalLoop=1;jettySize=auto;html=1;strokeColor=#006EAF;fillColor=#1ba1e2;flowAnimation=0;curved=0;strokeWidth=7;shadow=0;endArrow=none;endFill=0;entryX=1;entryY=0.5;entryDx=0;entryDy=0;" parent="1" target="N0Xd9c7wZlWknfisk5Qr-70" edge="1">
          <mxGeometry relative="1" as="geometry">
            <mxPoint x="1300" y="400" as="targetPoint" />
            <mxPoint x="1050" y="270.0000000000001" as="sourcePoint" />
            <Array as="points">
              <mxPoint x="1220" y="270" />
              <mxPoint x="1220" y="450" />
              <mxPoint x="1060" y="450" />
              <mxPoint x="1060" y="550" />
              <mxPoint x="1110" y="550" />
              <mxPoint x="1110" y="490" />
              <mxPoint x="1230" y="490" />
              <mxPoint x="1230" y="720" />
              <mxPoint x="1310" y="720" />
              <mxPoint x="1310" y="700" />
              <mxPoint x="1240" y="700" />
              <mxPoint x="1240" y="480" />
              <mxPoint x="1530" y="480" />
              <mxPoint x="1530" y="520" />
              <mxPoint x="1750" y="520" />
              <mxPoint x="1750" y="570" />
              <mxPoint x="1790" y="570" />
              <mxPoint x="1790" y="500" />
              <mxPoint x="1550" y="500" />
              <mxPoint x="1550" y="460" />
              <mxPoint x="1250" y="460" />
              <mxPoint x="1250" y="230" />
            </Array>
          </mxGeometry>
        </mxCell>
        <mxCell id="KUy_TzX36_KHFsjLlA8I-9" style="edgeStyle=orthogonalEdgeStyle;rounded=0;orthogonalLoop=1;jettySize=auto;html=1;startArrow=classic;startFill=1;" parent="1" source="KUy_TzX36_KHFsjLlA8I-7" target="gKmf_tGoP0ItRs4sD-Lh-23" edge="1">
          <mxGeometry relative="1" as="geometry">
            <Array as="points">
              <mxPoint x="920" y="1230" />
            </Array>
          </mxGeometry>
        </mxCell>
        <mxCell id="KUy_TzX36_KHFsjLlA8I-7" value="Technical Analysis Engine" style="rounded=1;whiteSpace=wrap;html=1;" parent="1" vertex="1">
          <mxGeometry x="855" y="1245" width="120" height="60" as="geometry" />
        </mxCell>
        <mxCell id="KUy_TzX36_KHFsjLlA8I-8" value="&lt;span style=&quot;color: rgb(240, 240, 240); font-family: Helvetica; font-size: 12px; font-style: normal; font-variant-ligatures: normal; font-variant-caps: normal; font-weight: 400; letter-spacing: normal; orphans: 2; text-align: center; text-indent: 0px; text-transform: none; widows: 2; word-spacing: 0px; -webkit-text-stroke-width: 0px; white-space: nowrap; background-color: rgb(27, 29, 30); text-decoration-thickness: initial; text-decoration-style: initial; text-decoration-color: initial; display: inline !important; float: none;&quot;&gt;Basic Analysis on Requested Data&amp;nbsp;&lt;/span&gt;" style="text;whiteSpace=wrap;html=1;" parent="1" vertex="1">
          <mxGeometry x="810" y="1200" width="190" height="40" as="geometry" />
        </mxCell>
        <mxCell id="KUy_TzX36_KHFsjLlA8I-12" style="edgeStyle=orthogonalEdgeStyle;rounded=0;orthogonalLoop=1;jettySize=auto;html=1;startArrow=classic;startFill=1;" parent="1" source="KUy_TzX36_KHFsjLlA8I-10" target="gKmf_tGoP0ItRs4sD-Lh-33" edge="1">
          <mxGeometry relative="1" as="geometry">
            <Array as="points">
              <mxPoint x="1890" y="1260" />
            </Array>
          </mxGeometry>
        </mxCell>
        <mxCell id="KUy_TzX36_KHFsjLlA8I-10" value="Technical Analysis Engine" style="rounded=1;whiteSpace=wrap;html=1;" parent="1" vertex="1">
          <mxGeometry x="1825" y="1275" width="120" height="60" as="geometry" />
        </mxCell>
        <mxCell id="KUy_TzX36_KHFsjLlA8I-11" value="&lt;span style=&quot;color: rgb(240, 240, 240); font-family: Helvetica; font-size: 12px; font-style: normal; font-variant-ligatures: normal; font-variant-caps: normal; font-weight: 400; letter-spacing: normal; orphans: 2; text-align: center; text-indent: 0px; text-transform: none; widows: 2; word-spacing: 0px; -webkit-text-stroke-width: 0px; white-space: nowrap; background-color: rgb(27, 29, 30); text-decoration-thickness: initial; text-decoration-style: initial; text-decoration-color: initial; display: inline !important; float: none;&quot;&gt;Basic Analysis on Requested Data&amp;nbsp;&lt;/span&gt;" style="text;whiteSpace=wrap;html=1;" parent="1" vertex="1">
          <mxGeometry x="1780" y="1235" width="190" height="40" as="geometry" />
        </mxCell>
      </root>
    </mxGraphModel>
  </diagram>
</mxfile>
